HIERARCHY
ROOT Hips
{
	OFFSET 0.000000 0.000000 0.000000
	CHANNELS 6 Xposition Yposition Zposition Zrotation Yrotation Xrotation 
	JOINT LHipJoint
	{
		OFFSET 0.000000 0.000000 0.000000
		CHANNELS 3 Zrotation Yrotation Xrotation
		JOINT LeftUpLeg
		{
			OFFSET 1.363060 -1.794630 0.839290
			CHANNELS 3 Zrotation Yrotation Xrotation
			JOINT LeftLeg
			{
				OFFSET 2.448110 -6.726130 0.000000
				CHANNELS 3 Zrotation Yrotation Xrotation
				JOINT LeftFoot
				{
					OFFSET 2.562200 -7.039590 0.000000
					CHANNELS 3 Zrotation Yrotation Xrotation
					JOINT LeftToeBase
					{
						OFFSET 0.157640 -0.433110 2.322550
						CHANNELS 3 Zrotation Yrotation Xrotation
						End Site
						{
							OFFSET 0.000000 0.000000 0.000000
						}
					}
				}
			}
		}
	}
	JOINT RHipJoint
	{
		OFFSET 0.000000 0.000000 0.000000
		CHANNELS 3 Zrotation Yrotation Xrotation
		JOINT RightUpLeg
		{
			OFFSET -1.305520 -1.794630 0.839290
			CHANNELS 3 Zrotation Yrotation Xrotation
			JOINT RightLeg
			{
				OFFSET -2.542530 -6.985550 0.000000
				CHANNELS 3 Zrotation Yrotation Xrotation
				JOINT RightFoot
				{
					OFFSET -2.568260 -7.056230 0.000000
					CHANNELS 3 Zrotation Yrotation Xrotation
					JOINT RightToeBase
					{
						OFFSET -0.164730 -0.452590 2.363150
						CHANNELS 3 Zrotation Yrotation Xrotation
						End Site
						{
							OFFSET 0.000000 0.000000 0.000000
						}
					}
				}
			}
		}
	}
	JOINT LowerBack
	{
		OFFSET 0.000000 0.000000 0.000000
		CHANNELS 3 Zrotation Yrotation Xrotation
		JOINT Spine
		{
			OFFSET 0.028270 2.035590 -0.193380
			CHANNELS 3 Zrotation Yrotation Xrotation
			JOINT Spine1
			{
				OFFSET 0.056720 2.048850 -0.042750
				CHANNELS 3 Zrotation Yrotation Xrotation
				JOINT Neck
				{
					OFFSET 0.000000 0.000000 0.000000
					CHANNELS 3 Zrotation Yrotation Xrotation
					JOINT Neck1
					{
						OFFSET -0.054170 1.746240 0.172020
						CHANNELS 3 Zrotation Yrotation Xrotation
						JOINT Head
						{
							OFFSET 0.104070 1.761360 -0.123970
							CHANNELS 3 Zrotation Yrotation Xrotation
							End Site
							{
								OFFSET 0.000000 0.000000 0.000000
							}
						}
					}
				}
				JOINT LeftShoulder
				{
					OFFSET 0.000000 0.000000 0.000000
					CHANNELS 3 Zrotation Yrotation Xrotation
					JOINT LeftArm
					{
						OFFSET 3.362410 1.200890 -0.311210
						CHANNELS 3 Zrotation Yrotation Xrotation
						JOINT LeftForeArm
						{
							OFFSET 4.983000 -0.000000 -0.000000
							CHANNELS 3 Zrotation Yrotation Xrotation
							JOINT LeftHand
							{
								OFFSET 3.483560 -0.000000 -0.000000
								CHANNELS 3 Zrotation Yrotation Xrotation
								JOINT LeftFingerBase
								{
									OFFSET 0.000000 0.000000 0.000000
									CHANNELS 3 Zrotation Yrotation Xrotation
									JOINT LeftHandIndex1
									{
										OFFSET 0.715260 -0.000000 -0.000000
										CHANNELS 3 Zrotation Yrotation Xrotation
										End Site
										{
											OFFSET 0.000000 0.000000 0.000000
										}
									}
								}
								JOINT LThumb
								{
									OFFSET 0.000000 0.000000 0.000000
									CHANNELS 3 Zrotation Yrotation Xrotation
									End Site
									{
										OFFSET 0.000000 0.000000 0.000000
									}
								}
							}
						}
					}
				}
				JOINT RightShoulder
				{
					OFFSET 0.000000 0.000000 0.000000
					CHANNELS 3 Zrotation Yrotation Xrotation
					JOINT RightArm
					{
						OFFSET -3.136600 1.374050 -0.404650
						CHANNELS 3 Zrotation Yrotation Xrotation
						JOINT RightForeArm
						{
							OFFSET -5.241900 -0.000000 -0.000000
							CHANNELS 3 Zrotation Yrotation Xrotation
							JOINT RightHand
							{
								OFFSET -3.444170 -0.000000 -0.000000
								CHANNELS 3 Zrotation Yrotation Xrotation
								JOINT RightFingerBase
								{
									OFFSET 0.000000 0.000000 0.000000
									CHANNELS 3 Zrotation Yrotation Xrotation
									JOINT RightHandIndex1
									{
										OFFSET -0.622530 -0.000000 -0.000000
										CHANNELS 3 Zrotation Yrotation Xrotation
										End Site
										{
											OFFSET 0.000000 0.000000 0.000000
										}
									}
								}
								JOINT RThumb
								{
									OFFSET 0.000000 0.000000 0.000000
									CHANNELS 3 Zrotation Yrotation Xrotation
									End Site
									{
										OFFSET 0.000000 0.000000 0.000000
									}
								}
							}
						}
					}
				}
			}
		}
	}
}
MOTION
Frames: 12
Frame Time: 0.008333
0.694538 18.374396 10.305901 -10.079140 -0.148200 17.794630 5.867382 4.616668 -2.308405 -25.384110 -54.016100 29.139259 -3.997544 -2.496646 -4.290480 -13.237451 48.464175 -45.304215 0.875100 5.963900 16.679800 -0.985482 -4.519857 -1.197260 25.255885 30.159380 1.396130 3.628521 -0.096234 1.006185 8.134214 -26.389009 -3.419259 -0.016000 -0.817700 2.247300 2.088700 2.122158 8.687952 12.699313 6.531131 -32.698822 -10.425523 -0.586883 -8.837933 -16.694030 -13.386528 -11.859489 18.684861 -20.126663 24.560939 2.779100 -8.165900 8.468700 -8.706958 -5.854205 2.391474 -85.416493 13.937431 0.278560 12.445147 -14.472565 -2.294302 -0.322786 1.540862 23.410464 18.028443 -9.460394 -3.665200 -7.125000 0.000000 0.000000 -5.733900 18.655000 3.616600 12.550264 7.341598 2.468815 81.826254 -14.626182 -4.069797 -13.625892 18.207241 -2.739025 0.806592 1.593068 41.573264 9.072942 -28.537147 -4.832200 7.125000 0.000000 0.000000 42.644700 -54.890100 -11.966500 
0.691069 18.371137 10.306216 -10.070032 -0.065466 17.883814 5.938013 4.597619 -2.360931 -25.040778 -53.766199 28.616878 -3.981559 -2.507412 -4.306144 -13.480193 48.500926 -44.693603 0.829500 5.810500 16.235500 -0.920499 -4.518515 -1.214091 25.182401 30.331574 1.400141 3.632169 -0.092531 0.961597 8.205236 -26.589881 -3.548406 -0.014500 -0.776900 2.135100 1.746504 2.075687 8.647827 13.401241 6.652486 -33.068648 -10.482844 -0.683051 -8.755799 -17.112720 -13.218147 -11.165421 18.761651 -19.910949 24.151081 2.909200 -8.110300 8.338700 -8.701172 -5.874127 2.378476 -85.818342 14.210905 -0.008932 12.499957 -14.519354 -2.309053 -0.322085 1.534154 23.344379 18.010755 -9.416130 -3.644100 -7.125000 0.000000 0.000000 -5.749200 18.707800 3.619700 12.361221 7.374941 2.494356 81.707347 -14.935901 -3.653508 -13.641213 18.255981 -2.753567 0.804579 1.594256 41.424864 9.114845 -28.600857 -4.862000 7.125000 0.000000 0.000000 42.737300 -54.931600 -12.047000 
0.690123 18.369245 10.307057 -10.092734 0.038951 17.978034 5.995083 4.582501 -2.403419 -24.956072 -53.789475 28.475975 -3.977946 -2.503640 -4.286582 -13.509299 48.483236 -44.576466 0.825500 5.796900 16.196100 -0.854409 -4.518417 -1.224508 25.125006 30.433732 1.369073 3.635514 -0.085395 0.908241 8.252972 -26.731066 -3.638394 -0.015200 -0.795800 2.187000 1.483999 2.026846 8.578603 14.094766 6.772286 -33.395224 -10.572673 -0.785569 -8.688698 -17.536485 -13.045929 -10.520424 18.810851 -19.693476 23.827821 3.029900 -8.049500 8.231800 -8.697718 -5.894273 2.363404 -86.239989 14.466642 -0.414044 12.550613 -14.561838 -2.322930 -0.318876 1.530632 23.399654 18.011359 -9.367081 -3.626300 -7.125000 0.000000 0.000000 -5.750500 18.762000 3.613600 12.178267 7.407705 2.520157 81.569146 -15.223276 -3.244103 -13.642579 18.284213 -2.761894 0.802391 1.594616 41.340980 9.176720 -28.624390 -4.897000 7.125000 0.000000 0.000000 42.812200 -54.937200 -12.081000 
0.688125 18.367563 10.307688 -10.154445 0.156600 18.067262 6.053563 4.571247 -2.440023 -24.870121 -53.883572 28.412843 -3.975549 -2.503224 -4.283479 -13.531176 48.495549 -44.550377 0.822300 5.785800 16.164200 -0.783944 -4.522164 -1.232254 25.125642 30.596336 1.370758 3.639060 -0.083049 0.874242 8.298487 -26.857618 -3.822457 -0.021000 -0.936500 2.574000 1.241217 1.978272 8.485335 14.823924 6.901496 -33.679397 -10.677303 -0.893705 -8.637958 -17.991817 -12.862676 -9.893546 18.879646 -19.476774 23.579737 3.157300 -7.983000 8.147500 -8.695467 -5.913671 2.344941 -86.661830 14.747817 -0.764776 12.612335 -14.620215 -2.340495 -0.316122 1.522121 23.399458 17.985314 -9.303762 -3.596300 -7.125000 0.000000 0.000000 -5.772500 18.837500 3.617800 11.992954 7.439462 2.545418 81.420286 -15.486079 -2.854678 -13.628412 18.291300 -2.765284 0.803916 1.596267 41.301011 9.282454 -28.706364 -4.963300 7.125000 0.000000 0.000000 42.980400 -54.981100 -12.192800 
0.684341 18.365460 10.309580 -10.279216 0.293811 18.164139 6.117234 4.565371 -2.466914 -24.748239 -54.090583 28.428993 -3.979934 -2.510617 -4.301861 -13.383070 48.402728 -44.791298 0.857700 5.905900 16.511700 -0.697026 -4.526339 -1.233204 25.178613 30.753648 1.358542 3.642231 -0.075300 0.823619 8.337944 -26.978418 -3.985452 -0.026800 -1.057400 2.906900 0.972062 1.934920 8.322625 15.688896 7.068088 -33.895893 -10.799305 -1.008752 -8.583913 -18.510841 -12.672469 -9.267080 18.983611 -19.259624 23.341334 3.299100 -7.913300 8.073700 -8.682635 -5.925338 2.305269 -87.110069 15.284385 -0.262489 12.855754 -14.912413 -2.419855 -0.347824 1.469046 22.541159 17.932213 -9.088950 -3.495400 -7.125000 0.000000 0.000000 -5.815500 19.117600 3.608700 11.787445 7.466115 2.573671 81.154953 -15.661442 -2.335963 -13.471039 18.119781 -2.718856 0.813537 1.593644 41.196220 9.329718 -28.790246 -4.994900 7.125000 0.000000 0.000000 43.092600 -55.042600 -12.304200 
0.680346 18.363253 10.331655 -11.086189 0.940842 18.468003 6.290062 4.567490 -2.495076 -23.496919 -54.428031 27.970505 -3.958999 -2.540498 -4.446455 -13.509220 48.431601 -44.559253 0.854200 5.894100 16.477500 -0.534627 -4.521067 -1.186166 25.971722 30.609111 1.186550 3.646567 -0.014065 0.643625 8.334542 -27.086073 -4.116590 -0.023400 -0.987000 2.713000 1.125528 1.834121 7.439052 17.460402 7.418218 -33.840682 -11.423926 -1.231968 -8.194734 -19.180076 -12.513730 -8.611565 19.115142 -19.041763 22.940411 3.448600 -7.844000 7.994000 -8.704977 -5.971189 2.202880 -87.655910 16.005651 1.378528 13.438947 -15.614981 -2.588498 -0.475891 1.197600 20.907248 17.450099 -7.045920 -2.640100 -7.125000 0.000000 0.000000 -6.176500 21.574500 3.492500 11.431679 7.559792 2.602622 80.817442 -15.648889 -1.752827 -13.168826 17.733858 -2.616493 0.832682 1.573880 41.107683 9.220575 -28.695339 -4.909300 7.125000 0.000000 0.000000 42.885400 -54.998500 -12.177100 
0.680557 18.364619 10.338804 -11.379349 1.162518 18.517509 6.380146 4.563144 -2.508574 -23.246807 -54.586490 28.006034 -3.959397 -2.553881 -4.477215 -13.505455 48.452904 -44.646964 0.861200 5.917700 16.545800 -0.452144 -4.524384 -1.149435 26.221563 30.418684 1.094598 3.646060 0.004460 0.577054 8.303626 -27.056516 -4.017355 -0.017900 -0.862800 2.371400 1.057247 1.776560 7.152408 18.457375 7.592203 -33.827286 -11.676599 -1.371091 -8.145384 -19.740147 -12.319483 -8.016007 19.290969 -18.827511 22.611533 3.604000 -7.775600 7.902900 -8.706547 -5.990576 2.144456 -88.108767 16.468761 1.867331 13.710586 -15.939047 -2.675370 -0.525755 1.095264 20.150642 17.326673 -6.321562 -2.351800 -7.125000 0.000000 0.000000 -6.279400 22.444800 3.426300 11.224007 7.582372 2.612562 80.529154 -15.764906 -1.255448 -12.993071 17.530850 -2.559696 0.839755 1.559342 41.029424 9.069676 -28.591030 -4.807000 7.125000 0.000000 0.000000 42.639600 -54.948500 -12.030000 
0.674880 18.369245 10.342588 -11.007094 1.003671 18.674928 6.347621 4.563388 -2.539811 -23.818480 -54.873559 28.219369 -3.973429 -2.532469 -4.414305 -13.238108 48.389572 -45.253214 0.906300 6.066600 16.977700 -0.420437 -4.504750 -1.198975 25.679254 30.713715 1.027037 3.650153 -0.006008 0.560290 8.390207 -27.244088 -4.134141 -0.022300 -0.964000 2.649700 0.493692 1.697442 7.024326 18.612252 7.548659 -34.187299 -11.366704 -1.432620 -8.048219 -20.139490 -12.107741 -7.448783 19.423288 -18.608152 22.361874 3.740500 -7.703600 7.818200 -8.677801 -6.032709 2.144028 -88.525382 16.706878 1.526497 13.769701 -15.972747 -2.690633 -0.530318 1.096114 20.044882 17.382843 -6.317116 -2.358800 -7.125000 0.000000 0.000000 -6.236200 22.445800 3.402300 11.147406 7.567868 2.629192 80.296859 -16.025613 -0.759614 -12.969134 17.537320 -2.561028 0.840225 1.555949 40.853588 8.988611 -28.602399 -4.762700 7.125000 0.000000 0.000000 42.570500 -54.974300 -12.033400 
0.664263 18.377970 10.348475 -10.271017 0.704685 18.992571 6.311175 4.553699 -2.606028 -24.900675 -55.392987 28.545240 -3.997515 -2.494438 -4.280124 -12.717351 48.235693 -46.329223 0.995700 6.350300 17.804100 -0.331502 -4.465579 -1.285022 24.538203 31.258862 0.813887 3.655695 -0.034482 0.533646 8.545855 -27.568035 -4.321045 -0.032200 -1.157900 3.183500 -0.721639 1.570307 6.741930 19.207071 7.574537 -34.968222 -10.778793 -1.579085 -7.933647 -21.340234 -11.591197 -5.951815 19.739638 -18.101121 21.716585 4.101800 -7.559000 7.607200 -8.601518 -6.125410 2.121675 -89.673998 17.352473 0.662072 13.924850 -16.075299 -2.733482 -0.525274 1.092032 20.016610 17.405785 -6.285820 -2.350400 -7.125000 0.000000 0.000000 -6.224800 22.478900 3.391300 10.919411 7.525884 2.661056 79.681311 -16.750945 0.224645 -12.917446 17.567061 -2.566343 0.837075 1.554191 40.599651 8.984625 -28.598385 -4.756700 7.125000 0.000000 0.000000 42.556800 -54.972400 -12.026200 
0.663001 18.377970 10.348580 -10.180237 0.631955 19.065270 6.229316 4.545477 -2.628055 -24.845644 -55.373777 28.452328 -3.990285 -2.478532 -4.298732 -12.808680 48.323752 -46.245972 0.977200 6.293000 17.637000 -0.422458 -4.453758 -1.342653 24.520229 31.264594 0.786995 3.655804 -0.033541 0.541088 8.540308 -27.547082 -4.308261 -0.033700 -1.184800 3.257400 -0.420893 1.658957 6.865628 18.123292 7.477950 -35.446577 -10.619572 -1.419684 -7.765593 -20.830340 -11.674939 -5.761463 19.657130 -18.289111 21.661577 4.011100 -7.647100 7.556800 -8.492596 -6.141893 2.185855 -89.260398 17.439560 1.149142 13.891640 -16.052811 -2.723590 -0.530392 1.083646 19.998214 17.382277 -6.208428 -2.319000 -7.125000 0.000000 0.000000 -6.242300 22.570700 3.387800 11.070282 7.503148 2.647506 80.095666 -16.816527 -0.397145 -12.950488 17.569782 -2.571495 0.838165 1.552686 40.751561 9.023752 -28.539383 -4.769600 7.125000 0.000000 0.000000 42.539800 -54.917700 -11.958900 
0.671937 18.369350 10.342903 -11.025820 1.004975 18.765192 6.370680 4.529143 -2.594839 -23.742735 -54.854255 28.146485 -3.973572 -2.537048 -4.428293 -13.262643 48.416606 -45.244689 0.902400 6.054100 16.941400 -0.399970 -4.508569 -1.232164 25.655864 30.743481 0.945356 3.649641 -0.025183 0.575319 8.374875 -27.214447 -4.142640 -0.026100 -1.043900 2.869500 0.359946 1.751645 7.059941 18.828337 7.738591 -34.978766 -11.307448 -1.458382 -8.052676 -20.737159 -11.704268 -5.799697 19.581927 -18.324690 21.588262 3.970700 -7.668900 7.522300 -8.537377 -6.089086 2.145597 -89.113890 17.445814 1.283832 13.867477 -16.074544 -2.722129 -0.527325 1.067556 20.131688 17.281858 -6.096506 -2.262800 -7.125000 0.000000 0.000000 -6.323000 22.709400 3.411900 10.960218 7.523307 2.616697 80.290520 -16.794774 -0.598344 -12.987242 17.597210 -2.576841 0.831658 1.557250 40.828594 9.123384 -28.502082 -4.820400 7.125000 0.000000 0.000000 42.602000 -54.866100 -11.924000 
0.677193 18.365040 10.339960 -11.446088 1.200973 18.626487 6.454579 4.523341 -2.570592 -23.266987 -54.700426 28.063710 -3.970468 -2.562530 -4.466828 -13.350468 48.380155 -44.951550 0.895100 6.030100 16.871700 -0.359495 -4.536475 -1.163564 26.165724 30.503872 0.987658 3.645649 -0.023769 0.590223 8.300373 -27.066080 -4.059744 -0.021100 -0.938200 2.578900 0.650412 1.766320 7.094816 19.500741 7.885644 -34.612630 -11.682067 -1.533683 -8.248842 -20.915964 -11.680661 -5.877302 19.618382 -18.263966 21.544457 4.000700 -7.642900 7.522900 -8.586641 -6.059481 2.105003 -89.206954 17.425508 1.116443 13.880365 -16.108291 -2.728047 -0.513232 1.054049 20.427571 17.150330 -6.000456 -2.208600 -7.125000 0.000000 0.000000 -6.431600 22.828600 3.453700 10.858905 7.540578 2.607862 80.232299 -16.781758 -0.440487 -12.995833 17.613508 -2.578856 0.828062 1.560121 40.767778 9.137042 -28.514289 -4.830600 7.125000 0.000000 0.000000 42.627400 -54.872200 -11.940100 
